# xmcd
#
# Track frame offsets:
# 150
# 8893
# 26508
# 46454
# 77326
# 102671
# 119621
# 145829
# 177209
# 199808
#
# Disc length: 3132 seconds
#
#
# Revision: 2
# Processed by: cddbd v1.5.1PL2 Copyright (c) Steve Scherf et al.
# Submitted via: FreeRIP 2.945 
#
DISCID=820c3a0a
DTITLE=Hibria - Defying the Rules
DYEAR=2004
DGENRE=Heavy Metal
TTITLE0=Intro
TTITLE1=Steel Lord On Wheels
TTITLE2=Change Your Life Line
TTITLE3=Millennium Quest
TTITLE4=A Kingdome To Share
TTITLE5=Living Under Ice
TTITLE6=Defying The Rules
TTITLE7=The Faceless In Charge
TTITLE8=High Speed Breakout
TTITLE9=Stare At Yourself
EXTD=YEAR: 2004
EXTT0=
EXTT1=
EXTT2=
EXTT3=
EXTT4=
EXTT5=
EXTT6=
EXTT7=
EXTT8=
EXTT9=
PLAYORDER=
